<svg id="visual" viewBox="0 0 1920 1080" width="1920" height="1080" xmlns="http://www.w3.org/2000/svg" xmlns:xlink="http://www.w3.org/1999/xlink" version="1.1"><rect x="0" y="0" width="1920" height="1080" fill="#191716"></rect><defs><linearGradient id="grad1_0" x1="43.8%" y1="0%" x2="100%" y2="100%"><stop offset="14.444444444444446%" stop-color="#191716" stop-opacity="1"></stop><stop offset="85.55555555555554%" stop-color="#191716" stop-opacity="1"></stop></linearGradient></defs><defs><linearGradient id="grad2_0" x1="0%" y1="0%" x2="56.3%" y2="100%"><stop offset="14.444444444444446%" stop-color="#191716" stop-opacity="1"></stop><stop offset="85.55555555555554%" stop-color="#191716" stop-opacity="1"></stop></linearGradient></defs><g transform="translate(1920, 0)"><path d="M0 486C-43.5 445.1 -86.9 404.3 -121.4 373.8C-156 343.3 -181.5 323.2 -228.1 313.9C-274.6 304.6 -342.2 306.2 -385.9 280.4C-429.6 254.6 -449.5 201.5 -462.2 150.2C-474.9 98.9 -480.5 49.4 -486 0L0 0Z" fill="#3FA34D"></path></g><g transform="translate(0, 1080)"><path d="M0 -486C50 -469.5 100 -453.1 139.1 -428C178.1 -402.9 206.3 -369.2 253.3 -348.7C300.4 -328.2 366.4 -320.8 393.2 -285.7C420 -250.5 407.6 -187.6 416.6 -135.3C425.5 -83.1 455.8 -41.6 486 0L0 0Z" fill="#3FA34D"></path></g></svg>